<svg xmlns="http://www.w3.org/2000/svg" width="520" height="200" viewBox="0 0 520 200" fill="none">
  <defs>
    <linearGradient id="bg-arb" x1="0" y1="0" x2="520" y2="200" gradientUnits="userSpaceOnUse">
      <stop offset="0" stop-color="#052e16"/>
      <stop offset="0.55" stop-color="#166534"/>
      <stop offset="1" stop-color="#84cc16"/>
    </linearGradient>
  </defs>

  <rect width="520" height="200" rx="16" fill="url(#bg-arb)"/>

  <!-- Tree icon -->
  <g transform="translate(28,24)">
    <circle cx="22" cy="18" r="14" fill="#22c55e" fill-opacity="0.3" stroke="#4ade80" stroke-width="1.5"/>
    <path d="M22 8 L14 22 H30 Z" fill="#4ade80" fill-opacity="0.5"/>
    <rect x="20" y="28" width="4" height="10" rx="1" fill="#a16207"/>
  </g>

  <!-- Title -->
  <text x="72" y="48" font-family="'Segoe UI',system-ui,-apple-system,sans-serif" font-size="20" font-weight="700" fill="#f0fdf4">Hack2skillGDSC_ARBOR</text>

  <!-- Tagline -->
  <text x="28" y="86" font-family="'Segoe UI',system-ui,-apple-system,sans-serif" font-size="14" fill="#dcfce7">Social Commerce — Products Tell Stories</text>

  <!-- Highlight chip: Social Commerce -->
  <g transform="translate(28,108)">
    <rect width="145" height="28" rx="14" fill="#84cc16" fill-opacity="0.2" stroke="#84cc16" stroke-width="1"/>
    <text x="14" y="19" font-family="'Segoe UI',system-ui,-apple-system,sans-serif" font-size="12" font-weight="700" fill="#ecfccb">🛍️ Social Commerce</text>
  </g>

  <!-- Tech badges -->
  <g font-family="'Segoe UI',system-ui,-apple-system,sans-serif" font-size="11" font-weight="600">
    <g transform="translate(183,108)">
      <rect width="80" height="28" rx="14" fill="#052e16" stroke="#166534" stroke-width="1"/>
      <circle cx="14" cy="14" r="5" fill="#FFCA28"/>
      <text x="26" y="18" fill="#dcfce7">Firebase</text>
    </g>
    <g transform="translate(271,108)">
      <rect width="110" height="28" rx="14" fill="#052e16" stroke="#166534" stroke-width="1"/>
      <circle cx="14" cy="14" r="5" fill="#FFCA28"/>
      <text x="26" y="18" fill="#dcfce7">Firebase Auth</text>
    </g>
    <g transform="translate(389,108)">
      <rect width="90" height="28" rx="14" fill="#052e16" stroke="#166534" stroke-width="1"/>
      <circle cx="14" cy="14" r="5" fill="#3448C5"/>
      <text x="26" y="18" fill="#dcfce7">Cloudinary</text>
    </g>
  </g>

  <!-- Repo link -->
  <text x="28" y="172" font-family="'Segoe UI',system-ui,-apple-system,sans-serif" font-size="11" fill="#86efac">github.com/manikng/Hack2skillGDSC_ARBOR</text>

  <!-- Corner accent -->
  <path d="M520 0 L520 60 L460 0 Z" fill="#ffffff" fill-opacity="0.05"/>
</svg>