<svg xmlns="http://www.w3.org/2000/svg" width="520" height="200" viewBox="0 0 520 200" fill="none">
  <defs>
    <linearGradient id="bg-mmpr" x1="0" y1="0" x2="520" y2="200" gradientUnits="userSpaceOnUse">
      <stop offset="0" stop-color="#0c0a09"/>
      <stop offset="0.5" stop-color="#7c2d12"/>
      <stop offset="1" stop-color="#f97316"/>
    </linearGradient>
  </defs>

  <rect width="520" height="200" rx="16" fill="url(#bg-mmpr)"/>

  <!-- Bug fix icon (wrench + check) -->
  <g transform="translate(28,24)" fill="none" stroke="#fed7aa" stroke-width="2" stroke-linecap="round" stroke-linejoin="round">
    <path d="M6 24 L14 16 L10 12 L6 16 V24 Z" fill="#f97316" fill-opacity="0.3"/>
    <path d="M18 6 L26 14 L22 18 L14 10 Z"/>
    <path d="M24 20 L28 24 L32 20 L28 16 Z" fill="#22c55e" fill-opacity="0.4"/>
  </g>

  <!-- Title -->
  <text x="72" y="48" font-family="'Segoe UI',system-ui,-apple-system,sans-serif" font-size="18" font-weight="700" fill="#fff7ed">Agentic-Automated-Program-Repair</text>

  <!-- Tagline -->
  <text x="28" y="86" font-family="'Segoe UI',system-ui,-apple-system,sans-serif" font-size="14" fill="#fed7aa">86% Autonomous Bug Fix on QuixBugs</text>

  <!-- Accuracy chip -->
  <g transform="translate(28,108)">
    <rect width="150" height="28" rx="14" fill="#f97316" fill-opacity="0.2" stroke="#f97316" stroke-width="1"/>
    <text x="14" y="19" font-family="'Segoe UI',system-ui,-apple-system,sans-serif" font-size="12" font-weight="700" fill="#ffedd5">🎯 86% Accuracy</text>
  </g>

  <!-- Tech badges -->
  <g font-family="'Segoe UI',system-ui,-apple-system,sans-serif" font-size="11" font-weight="600">
    <g transform="translate(190,108)">
      <rect width="70" height="28" rx="14" fill="#0c0a09" stroke="#7c2d12" stroke-width="1"/>
      <circle cx="14" cy="14" r="5" fill="#3b82f6"/>
      <text x="26" y="18" fill="#fed7aa">Python</text>
    </g>
    <g transform="translate(270,108)">
      <rect width="100" height="28" rx="14" fill="#0c0a09" stroke="#7c2d12" stroke-width="1"/>
      <circle cx="14" cy="14" r="5" fill="#8b5cf6"/>
      <text x="26" y="18" fill="#fed7aa">LLM Agents</text>
    </g>
    <g transform="translate(380,108)">
      <rect width="90" height="28" rx="14" fill="#0c0a09" stroke="#7c2d12" stroke-width="1"/>
      <circle cx="14" cy="14" r="5" fill="#22c55e"/>
      <text x="26" y="18" fill="#fed7aa">QuixBugs</text>
    </g>
  </g>

  <!-- Repo link -->
  <text x="28" y="172" font-family="'Segoe UI',system-ui,-apple-system,sans-serif" font-size="11" fill="#fdba74">github.com/manikng/Agentic-Automated-Program-Repair</text>

  <!-- Corner accent -->
  <path d="M520 0 L520 60 L460 0 Z" fill="#ffffff" fill-opacity="0.05"/>
</svg>